#!OML:ASF F:\VICON\USERDATA\INSTALL\rory3\rory3.ASF
:FULLY-SPECIFIED
:DEGREES
36
root 0.3044357430013237 17.726254345780042 11.968750935688764 -1.6211579607592344 1.5950215587489387 1.6981158253477764
lfemur 16.92148905258916 -5.214829712652882 -25.848822718866202
ltibia 21.784440863210754
lfoot -7.013100761677725 -5.8543859784499634
ltoes -16.576192148109453
rfemur -28.067163538510002 5.322995718131455 19.031953549217405
rtibia 22.98872186026287
rfoot -3.982172638042819 -6.09920021257465
rtoes -1.5404105594242758
lowerback 9.253117578107602 -1.585652725842313 -3.645678543247363
upperback 0.20622566810362197 -2.40959740074981 1.8631710533164492
thorax -4.719225735556545 -1.096730333856559 4.070462722208647
lowerneck -17.01339386356433 -2.683917469993318 -2.2830661437221447
upperneck 21.410207785700962 -3.280539270912146 0.28856256469282626
head 9.61472635451297 -1.6542699847631073 0.08082342060489817
lclavicle -2.0156652529639054e-15 8.52862544232902e-16
lhumerus -22.645952655007072 -3.7888766980996555 82.53332505438817
lradius 32.174498793700344
lwrist 8.118572372165449
lhand -29.380106357781855 23.537977445900733
lfingers 7.12502
lthumb -2.7186994005602614 53.49490983152224
rclavicle -2.0156652529639058e-15 8.52862544232902e-16
rhumerus -33.422810480077594 -28.04446774415934 -73.522139226177
rradius 19.563806679912524
rwrist 13.588008372893057
rhand -17.983683684144037 21.475165159112777
rfingers 7.12502
rthumb 8.285987891549643 -8.340326257654974
37
root 0.20533739828972886 17.812274796409774 12.125897727244187 -2.1707583069128478 1.5930127395152334 0.12319595187397159
lfemur 14.104778490101545 -4.932442567111099 -23.219661831013795
ltibia 32.21806242429763
lfoot 0.7351669807249186 -10.669277417342123
ltoes -17.982646623885323
rfemur -26.39969002951141 4.950470054679839 21.917368810956777
rtibia 27.720104856248696
rfoot -2.9812955000106287 -3.3168913697578195
rtoes 3.5416435092598375
lowerback 9.302420028357941 -1.6553418559368969 -2.1701169257249564
upperback 0.17080101680979284 -2.3114273960544613 2.3974041243045208
thorax -4.79897393729689 -1.0746626521376115 3.8107190864844855
lowerneck -16.845198679816438 -2.619057461439572 -2.2230025409522365
upperneck 21.590670654747576 -3.167456132571637 0.07641347399397669
head 9.642927580594415 -1.6199967880358956 0.03232355576238978
lclavicle -1.872455603110125e-15 9.848362885559577e-16
lhumerus -24.323209837318856 -2.756673942099244 83.00430024431559
lradius 31.56617561718657
lwrist 7.8119167718625295
lhand -28.71749459073321 24.090726418043015
lfingers 7.12502
lthumb -2.0787727116495027 54.05070522124629
rclavicle -1.872455603110125e-15 9.848362885559577e-16
rhumerus -33.96358073123106 -29.466910270654466 -72.3807197245229
rradius 18.83129338706644
rwrist 15.031765387942286
rhand -17.740932129159376 21.342926963211575
rfingers 7.12502
rthumb 8.52022566267023 -8.462876149891727
38
root 0.08751512679375961 17.918596518706313 11.92168499317631 -2.720905302322041 1.5131399734981064 -1.7041274647166564
lfemur 8.812757509867144 -4.116780541180057 -20.324747891636207
ltibia 42.738307721246514
lfoot 9.16376568368235 -15.367826501692468
ltoes -14.39975973169579
rfemur -24.066731278688685 4.920707081152136 24.48121048356533
rtibia 29.10910332825194
rfoot -3.9652740415403978 -2.758149338618965
rtoes 7.248449689145645
lowerback 9.429962807551428 -1.6945586258339627 -0.7910255557063335
upperback 0.13968768672137916 -2.1812819543093767 2.8265959869686292
thorax -4.935444375960318 -1.0352493702148173 3.3451457918210985
lowerneck -16.730162967080677 -2.624355764068036 -2.192384554571086
upperneck 21.666188842922427 -3.1789469546867952 -0.02005193524316995
head 9.638864493642734 -1.6273262454062194 0.0006073332060417547
lclavicle -2.4196618828177808e-15 4.783609793190258e-16
lhumerus -26.239672430319395 -2.5972245019704365 83.5060362169396
lradius 30.674855449844866
lwrist 7.371871839753091
lhand -27.905067340324603 24.15526717192611
lfingers 7.12502
lthumb -1.2941624552352053 54.120151795530354
rclavicle -2.4196618828177808e-15 4.783609793190258e-16
rhumerus -34.11631095890356 -29.523548532379444 -72.4179662219563
rradius 18.686244734782267
rwrist 14.732582260785382
rhand -17.39112241033363 21.405523953247513
rfingers 7.12502
rthumb 8.85777567855134 -8.3847586786422
39
root -0.01670715875456391 18.03823926855362 12.571194199239667 -3.162022509475306 1.6517853486145997 -3.116229313148339
lfemur 3.5064800254832775 -2.774841858680655 -17.330537984271526
ltibia 54.138654490406154
lfoot 15.028210305785457 -17.616180183957255
ltoes -8.49965189259608
rfemur -20.530729914759398 5.345698467730062 27.013138903049317
rtibia 29.21767565430767
rfoot -5.648548069740406 -3.475986321143634
rtoes 9.352968476315946
lowerback 9.618290249578358 -1.5500735103526648 0.5131871781255287
upperback 0.19908663641450883 -1.8252855535755232 3.154003208221944
thorax -5.005808794390679 -0.8839079931296778 2.9849970466251796
lowerneck -16.64312779067495 -2.6884790292638376 -2.1349174387136505
upperneck 21.636434338195347 -3.29868516345638 0.15113072986531184
head 9.620671676571272 -1.6680676396202923 0.026113004489533007
lclavicle -2.1372809546118044e-15 7.376410646908762e-16
lhumerus -27.4556314272143 -2.927991807310918 84.10643509043284
lradius 30.01681939669683
lwrist 6.669442021303475
lhand -26.848868669903272 24.480033590542867
lfingers 7.12502
lthumb -0.274154386214273 54.44848452574935
rclavicle -2.1372809546118044e-15 7.376410646908762e-16
rhumerus -33.62895649418448 -28.22250216900658 -73.22288505710148
rradius 19.02851873072134
rwrist 13.702570267094913
rhand -17.022506223346625 22.12483591973009
rfingers 7.12502
rthumb 9.213515458833708 -7.652357913272689
